<svg xmlns="http://www.w3.org/2000/svg" viewBox="0 0 108.49 148.64"><defs><style>.cls-1{fill:#b8ab95;}</style></defs><g id="Capa_2" data-name="Capa 2"><g id="Capa_1-2" data-name="Capa 1"><path class="cls-1" d="M27.28,148.64C12.15,137.55,5,121.73,1.41,104.06-.3,95.55,0,87.05,0,77.68H93.11V87a48.18,48.18,0,0,1,7.63.6c4.86,1.23,7.18,5.23,7.66,10.36,1,11.35-6.69,25.61-16.78,30.91a49.87,49.87,0,0,1-6.89,2.32c-3.6.66-2.4-.83-4.77,2-3.45,4.17-9.29,9.74-15.66,15.44ZM92.49,96.05c-.48,10.85-2.44,20.87-7.76,30.28a14.54,14.54,0,0,0,2.4-.44c7.91-2.88,13.09-11.83,14.35-21S100.46,94.49,92.49,96.05Z"/><path class="cls-1" d="M57.5,19.11c4.93,7.08,4.75,13.06,1.25,18.92a51.8,51.8,0,0,1-6.38,8.25c-9.58,10.49-10.27,12.34-9,26.66-7-2.92-10.07-11-7.54-19.63,2-6.85,6.57-11.83,11.79-16.33S57,27.59,57.5,19.11Z"/><path class="cls-1" d="M44.71,0c7.21,5.79,8.11,18.77,1.76,26.87a68,68,0,0,1-7,7.79C33.83,39.94,29.24,45.74,28.55,54c-3.59-5.76-2.93-11.48.3-16.73a79.75,79.75,0,0,1,8.92-11.29c6-6.71,9.24-14.09,6.55-23.21a5.71,5.71,0,0,1-.06-2C44.28.48,44.55.25,44.71,0Z"/><path class="cls-1" d="M61.77,46.28c1.85,3.23,1.58,7.26-1.38,11a51.14,51.14,0,0,1-10,10C51.86,64.36,59.45,50.33,61.77,46.28Z"/></g></g></svg>